<svg width="18" height="18" viewBox="0 0 18 18" fill="none" xmlns="http://www.w3.org/2000/svg">
<rect opacity="0.25" x="0.694474" y="0.224747" width="17.0808" height="17.0808" rx="8.5404" stroke="#0A142F" stroke-width="0.449495"/>
<path d="M9.45993 5.39394C7.7213 5.39322 6.31311 6.83899 6.31311 8.62345C6.31311 10.0346 7.19402 11.2341 8.42083 11.6746C8.58605 11.7172 8.56074 11.5966 8.56074 11.5143V10.9546C7.60671 11.0694 7.56804 10.4209 7.50406 10.3126C7.3747 10.0858 7.06888 10.0281 7.16028 9.91974C7.37752 9.80491 7.59897 9.94862 7.85558 10.3379C8.04119 10.6202 8.40325 10.5726 8.58675 10.5256C8.62682 10.3559 8.71259 10.2043 8.8307 10.0866C7.84223 9.90457 7.43024 9.28495 7.43024 8.54835C7.43024 8.19088 7.54484 7.86229 7.76981 7.59726C7.62639 7.16035 7.78317 6.78627 7.80426 6.73066C8.21273 6.69311 8.63737 7.03108 8.67041 7.0578C8.90241 6.99353 9.16746 6.95959 9.46414 6.95959C9.76223 6.95959 10.028 6.99498 10.2621 7.05997C10.3415 6.99786 10.7352 6.70755 11.1149 6.74294C11.1353 6.79855 11.2885 7.16396 11.1536 7.59509C11.3813 7.86085 11.4973 8.19232 11.4973 8.55052C11.4973 9.28857 11.0825 9.9089 10.0913 10.088C10.1762 10.1738 10.2436 10.2761 10.2896 10.3889C10.3356 10.5017 10.3592 10.6228 10.3591 10.7452V11.5576C10.3647 11.6226 10.3591 11.6869 10.4646 11.6869C11.7097 11.2557 12.606 10.0476 12.606 8.62418C12.606 6.83899 11.1971 5.39394 9.45993 5.39394Z" fill="black"/>
</svg>
