<svg width="19" height="18" viewBox="0 0 19 18" fill="none" xmlns="http://www.w3.org/2000/svg">
<rect opacity="0.25" x="1.04799" y="0.224747" width="17.0808" height="17.0808" rx="8.5404" stroke="#0A142F" stroke-width="0.449495"/>
<path fill-rule="evenodd" clip-rule="evenodd" d="M8.01511 11.6869H6.66663V7.6414H8.01511V11.6869Z" fill="#0A142F"/>
<path fill-rule="evenodd" clip-rule="evenodd" d="M7.33686 6.74242H7.3292C6.92678 6.74242 6.66663 6.44262 6.66663 6.06795C6.66663 5.68535 6.9347 5.39394 7.34476 5.39394C7.75481 5.39394 8.00733 5.68535 8.01511 6.06795C8.01511 6.44262 7.75481 6.74242 7.33686 6.74242Z" fill="#0A142F"/>
<path fill-rule="evenodd" clip-rule="evenodd" d="M12.9595 11.6868H11.6344V9.57214C11.6344 9.041 11.4426 8.67856 10.9629 8.67856C10.5968 8.67856 10.3788 8.9229 10.283 9.15889C10.248 9.24347 10.2394 9.36131 10.2394 9.47944V11.6869H8.91406C8.91406 11.6869 8.93153 8.10521 8.91406 7.73432H10.2394V8.29417C10.4152 8.02504 10.7302 7.6414 11.4338 7.6414C12.3058 7.6414 12.9595 8.20644 12.9595 9.42049L12.9595 11.6868Z" fill="#0A142F"/>
</svg>
