<svg width="16" height="16" viewBox="0 0 16 16" fill="none" xmlns="http://www.w3.org/2000/svg">
<circle cx="6.95627" cy="6.95627" r="6.95627" fill="#F87777" fill-opacity="0.5"/>
<circle cx="8.81125" cy="8.3475" r="6.95627" fill="#F87777"/>
<path d="M8.1163 10.73C7.82297 10.73 7.53963 10.6033 7.2663 10.35C7.2263 10.3367 7.19297 10.3067 7.1663 10.26C7.13963 10.22 7.11297 10.1867 7.0863 10.16C7.03963 10.1467 7.00963 10.1267 6.9963 10.1C6.98297 10.0733 6.96963 10.04 6.9563 10C6.9563 9.99333 6.94963 9.98333 6.9363 9.97C6.92963 9.96333 6.92297 9.95667 6.9163 9.95C6.90963 9.94333 6.90297 9.93667 6.8963 9.93C6.88963 9.93 6.8863 9.93 6.8863 9.93C6.89297 9.92333 6.8963 9.92 6.8963 9.92C6.86963 9.86667 6.85297 9.83 6.8463 9.81C6.83963 9.78333 6.81297 9.75 6.7663 9.71C6.75297 9.69667 6.73963 9.67667 6.7263 9.65C6.71963 9.61667 6.71297 9.59 6.7063 9.57C6.63297 9.39667 6.5663 9.22 6.5063 9.04C6.45297 8.85333 6.4263 8.66333 6.4263 8.47C6.4263 8.40333 6.4463 8.35333 6.4863 8.32C6.5263 8.28667 6.56963 8.27 6.6163 8.27C6.70297 8.27 6.75963 8.31333 6.7863 8.4C6.79963 8.42667 6.81297 8.45667 6.8263 8.49C6.8463 8.51667 6.8563 8.54333 6.8563 8.57V8.67C6.8563 8.71 6.8663 8.72 6.8863 8.7C6.91297 8.67333 6.92963 8.67667 6.9363 8.71C6.94963 8.75667 6.95963 8.78667 6.9663 8.8C6.97297 8.80667 6.99963 8.82333 7.0463 8.85C7.05963 8.87667 7.0763 8.90333 7.0963 8.93C7.1163 8.95667 7.1363 8.98333 7.1563 9.01V9.03C7.1563 9.07 7.16963 9.1 7.1963 9.12C7.22297 9.13333 7.25297 9.15 7.2863 9.17L7.4163 9.31C7.40963 9.32333 7.4063 9.33667 7.4063 9.35C7.4063 9.39 7.4263 9.41667 7.4663 9.43C7.51297 9.44333 7.55297 9.45667 7.5863 9.47C7.59297 9.47667 7.62963 9.51 7.6963 9.57C7.76963 9.62333 7.81963 9.65667 7.8463 9.67C7.87963 9.69 7.9163 9.71333 7.9563 9.74C7.9963 9.76 8.0363 9.77667 8.0763 9.79C8.08963 9.79 8.10297 9.79667 8.1163 9.81C8.2363 9.85667 8.3463 9.88 8.4463 9.88C8.53963 9.88 8.6463 9.86 8.7663 9.82C8.7863 9.81333 8.80297 9.81 8.8163 9.81C8.8363 9.80333 8.84963 9.8 8.8563 9.8C8.8763 9.8 8.8863 9.80667 8.8863 9.82C8.8863 9.85333 8.8563 9.88667 8.7963 9.92C8.7963 9.93333 8.7863 9.94 8.7663 9.94C8.73963 9.94667 8.71297 9.95667 8.6863 9.97C8.65963 9.98333 8.63297 9.98667 8.6063 9.98C8.57297 9.98 8.5463 9.97667 8.5263 9.97C8.5063 9.96333 8.47963 9.97333 8.4463 10C8.35963 9.99333 8.26297 9.97333 8.1563 9.94C8.04963 9.90667 7.95963 9.87 7.8863 9.83C7.87963 9.78333 7.84963 9.76 7.7963 9.76C7.74297 9.75333 7.69963 9.73667 7.6663 9.71C7.63963 9.67667 7.6163 9.64 7.5963 9.6C7.58297 9.56 7.54963 9.55667 7.4963 9.59C7.46963 9.56333 7.4463 9.54333 7.4263 9.53C7.4063 9.51 7.3763 9.5 7.3363 9.5C7.32297 9.48667 7.30297 9.47333 7.2763 9.46C7.2563 9.44667 7.24963 9.42667 7.2563 9.4C7.22963 9.38 7.1763 9.34667 7.0963 9.3C7.02297 9.24667 6.97963 9.21333 6.9663 9.2C6.9063 9.13333 6.83963 9.07667 6.7663 9.03L6.7363 9.01C6.82297 9.27 6.9263 9.52333 7.0463 9.77C7.17297 10.0167 7.3563 10.2167 7.5963 10.37C7.70963 10.4367 7.81297 10.49 7.9063 10.53C8.0063 10.5767 8.10297 10.6 8.1963 10.6C8.36963 10.6 8.55297 10.5133 8.7463 10.34C8.91297 10.1867 9.06297 10.0033 9.1963 9.79C9.32963 9.57 9.44963 9.34 9.5563 9.1C9.66297 8.86 9.7563 8.63667 9.8363 8.43C9.84963 8.41667 9.85963 8.40667 9.8663 8.4C9.87297 8.39333 9.87963 8.38667 9.8863 8.38C9.9063 8.33333 9.91963 8.28 9.9263 8.22C9.93963 8.15333 9.95297 8.09667 9.9663 8.05C9.99963 8.01 10.0296 7.96333 10.0563 7.91C10.0896 7.85 10.1063 7.79333 10.1063 7.74L10.1263 7.69C10.1396 7.68333 10.1363 7.67333 10.1163 7.66C10.0963 7.64667 10.1096 7.63667 10.1563 7.63C10.203 7.55667 10.2296 7.48333 10.2363 7.41C10.2496 7.33 10.2696 7.27333 10.2963 7.24C10.3163 7.20667 10.3363 7.17667 10.3563 7.15C10.3763 7.12333 10.3796 7.09 10.3663 7.05C10.373 7.02333 10.393 6.96 10.4263 6.86C10.4663 6.75333 10.5096 6.63667 10.5563 6.51C10.603 6.38333 10.643 6.27333 10.6763 6.18C10.7096 6.08 10.7263 6.02333 10.7263 6.01L10.8363 5.72C10.6496 5.72667 10.4563 5.73667 10.2563 5.75C10.063 5.76333 9.87297 5.79333 9.6863 5.84C9.69297 5.83333 9.68963 5.82667 9.6763 5.82C9.66297 5.80667 9.65297 5.8 9.6463 5.8L9.6363 5.79C9.60963 5.78333 9.60297 5.79 9.6163 5.81C9.6363 5.82333 9.63297 5.83667 9.6063 5.85C9.5463 5.85667 9.4763 5.87333 9.3963 5.9C9.32297 5.92 9.2563 5.93 9.1963 5.93C9.16963 5.93667 9.13963 5.94 9.1063 5.94C9.07297 5.93333 9.03963 5.93 9.0063 5.93C8.9063 5.93667 8.8063 5.96333 8.7063 6.01C8.61297 6.05667 8.5163 6.09667 8.4163 6.13L8.2363 6.18C8.16297 6.21333 8.08297 6.23667 7.9963 6.25C7.90963 6.26333 7.82963 6.28667 7.7563 6.32L7.7663 6.33C7.73963 6.35 7.7063 6.36333 7.6663 6.37C7.6263 6.37667 7.58963 6.38667 7.5563 6.4C7.4763 6.42667 7.39297 6.46 7.3063 6.5C7.2263 6.53333 7.14297 6.56333 7.0563 6.59C7.00963 6.60333 6.96297 6.61667 6.9163 6.63C6.8763 6.63667 6.82963 6.65 6.7763 6.67C6.74963 6.67667 6.7263 6.68333 6.7063 6.69C6.6863 6.69 6.66297 6.69 6.6363 6.69C6.5763 6.69 6.52297 6.67667 6.4763 6.65C6.44963 6.63667 6.40963 6.6 6.3563 6.54C6.30963 6.47333 6.26963 6.40667 6.2363 6.34C6.20297 6.26667 6.18963 6.21333 6.1963 6.18C6.20297 6.16 6.2463 6.13667 6.3263 6.11C6.4063 6.07667 6.49963 6.04667 6.6063 6.02C6.71297 5.98667 6.80963 5.96 6.8963 5.94C6.98963 5.91333 7.04963 5.89667 7.0763 5.89C7.08963 5.88333 7.1263 5.87667 7.1863 5.87C7.2463 5.85667 7.27963 5.86333 7.2863 5.89C7.29297 5.90333 7.2863 5.92333 7.2663 5.95C7.2463 5.97 7.22963 5.98667 7.2163 6C7.2163 6.00667 7.2063 6.02 7.1863 6.04C7.17297 6.06 7.17297 6.06667 7.1863 6.06L7.5363 5.97C7.58963 5.95667 7.65297 5.95333 7.7263 5.96C7.8063 5.96 7.8663 5.94667 7.9063 5.92C7.91963 5.90667 7.9263 5.89333 7.9263 5.88C7.93297 5.86667 7.9463 5.86 7.9663 5.86C8.01297 5.84667 8.08963 5.83333 8.1963 5.82C8.30963 5.80667 8.37963 5.78667 8.4063 5.76C8.45963 5.74667 8.5163 5.74 8.5763 5.74C8.6363 5.73333 8.68963 5.71667 8.7363 5.69C8.7563 5.68333 8.81963 5.67 8.9263 5.65C9.03963 5.63 9.1663 5.61 9.3063 5.59C9.45297 5.56333 9.58297 5.54333 9.6963 5.53C9.80963 5.51 9.8763 5.5 9.8963 5.5H9.9063C9.93297 5.5 9.95963 5.49667 9.9863 5.49C10.013 5.48333 10.0396 5.48 10.0663 5.48C10.1196 5.48 10.1463 5.50333 10.1463 5.55C10.153 5.55667 10.1696 5.56 10.1963 5.56C10.2563 5.56 10.303 5.54333 10.3363 5.51C10.363 5.50333 10.383 5.49333 10.3963 5.48C10.4163 5.46667 10.4396 5.45667 10.4663 5.45C10.5396 5.43667 10.6163 5.43333 10.6963 5.44C10.783 5.44 10.8596 5.44 10.9263 5.44C10.973 5.34 11.023 5.27333 11.0763 5.24C11.1296 5.2 11.2096 5.18 11.3163 5.18C11.3896 5.18 11.4363 5.21667 11.4563 5.29C11.4763 5.35667 11.4863 5.41667 11.4863 5.47C11.5196 5.47 11.563 5.47 11.6163 5.47C11.6696 5.46333 11.7263 5.46 11.7863 5.46C11.8463 5.46 11.903 5.46333 11.9563 5.47C12.0163 5.47667 12.063 5.48667 12.0963 5.5C12.103 5.48 12.1196 5.47333 12.1463 5.48C12.1796 5.48 12.203 5.48333 12.2163 5.49C12.2696 5.51667 12.3263 5.53 12.3863 5.53C12.453 5.52333 12.5163 5.53333 12.5763 5.56C12.6363 5.58 12.693 5.60333 12.7463 5.63C12.7996 5.65667 12.8563 5.68 12.9163 5.7C12.9696 5.71333 13.0096 5.73333 13.0363 5.76C13.0696 5.78667 13.1096 5.81667 13.1563 5.85C13.2096 5.89 13.243 5.92667 13.2563 5.96C13.2563 5.96 13.2596 5.97333 13.2663 6C13.273 6.02 13.2663 6.02667 13.2463 6.02C13.2396 6.02 13.2296 6.02 13.2163 6.02C13.2096 6.01333 13.203 6.01333 13.1963 6.02C13.1963 6.04667 13.2063 6.07 13.2263 6.09C13.2396 6.09667 13.253 6.09667 13.2663 6.09C13.2863 6.08333 13.2996 6.07667 13.3063 6.07C13.333 6.07 13.3463 6.08333 13.3463 6.11C13.353 6.13667 13.3596 6.16333 13.3663 6.19C13.3863 6.27 13.3963 6.35 13.3963 6.43C13.3963 6.51667 13.373 6.61333 13.3263 6.72C13.2863 6.82667 13.2296 6.92 13.1563 7C13.083 7.07333 12.9963 7.11 12.8963 7.11C12.863 7.11 12.8363 7.10667 12.8163 7.1C12.743 7.08 12.7063 7.06 12.7063 7.04C12.7063 7.02 12.7396 6.98667 12.8063 6.94C12.853 6.90667 12.893 6.87 12.9263 6.83C12.9596 6.78333 12.9896 6.73667 13.0163 6.69C13.063 6.65667 13.0996 6.59 13.1263 6.49C13.153 6.39 13.1663 6.29667 13.1663 6.21C13.1663 6.14333 13.1563 6.09 13.1363 6.05C13.1296 6.05 13.0996 6.01333 13.0463 5.94C12.9996 5.86667 12.943 5.82667 12.8763 5.82C12.843 5.80667 12.8063 5.79333 12.7663 5.78C12.733 5.76667 12.6996 5.75667 12.6663 5.75C12.6396 5.72333 12.5863 5.70333 12.5063 5.69C12.433 5.67667 12.3563 5.66667 12.2763 5.66C12.1963 5.65333 12.1363 5.65 12.0963 5.65C12.063 5.65 12.003 5.65333 11.9163 5.66C11.8296 5.66 11.743 5.66333 11.6563 5.67C11.5696 5.67 11.5096 5.67 11.4763 5.67C11.4163 5.84333 11.313 5.94667 11.1663 5.98C11.1596 6 11.133 6.07 11.0863 6.19C11.0396 6.31 10.9896 6.44333 10.9363 6.59C10.883 6.73 10.833 6.85667 10.7863 6.97C10.7463 7.07667 10.723 7.13667 10.7163 7.15C10.6963 7.17667 10.6763 7.20333 10.6563 7.23C10.6363 7.25667 10.623 7.28667 10.6163 7.32C10.6096 7.38667 10.5796 7.48 10.5263 7.6C10.4796 7.72 10.4263 7.84 10.3663 7.96C10.313 8.07333 10.2696 8.16667 10.2363 8.24C10.1963 8.26667 10.163 8.29 10.1363 8.31C10.1096 8.32333 10.1163 8.35333 10.1563 8.4C10.1363 8.44667 10.1163 8.47 10.0963 8.47C10.0763 8.46333 10.0496 8.45667 10.0163 8.45C10.023 8.48333 10.033 8.50667 10.0463 8.52C10.0596 8.52667 10.0696 8.54667 10.0763 8.58C10.023 8.7 9.9563 8.84667 9.8763 9.02C9.7963 9.18667 9.7163 9.32 9.6363 9.42C9.58963 9.44 9.55297 9.46 9.5263 9.48C9.49963 9.5 9.49963 9.54 9.5263 9.6C9.51297 9.61333 9.50297 9.63 9.4963 9.65C9.48963 9.67 9.48297 9.69 9.4763 9.71L9.3963 9.83C9.36963 9.85 9.34297 9.87333 9.3163 9.9C9.28963 9.92 9.2763 9.95333 9.2763 10C9.24963 10.04 9.2263 10.07 9.2063 10.09C9.1663 10.1033 9.13297 10.12 9.1063 10.14C9.07963 10.16 9.0663 10.1967 9.0663 10.25C8.93297 10.3967 8.78297 10.5133 8.6163 10.6C8.4563 10.6867 8.28963 10.73 8.1163 10.73Z" fill="#0D0D0C"/>
</svg>
