<svg width="19" height="18" viewBox="0 0 19 18" fill="none" xmlns="http://www.w3.org/2000/svg">
<rect opacity="0.25" x="0.871232" y="0.224747" width="17.0808" height="17.0808" rx="8.5404" stroke="#0A142F" stroke-width="0.449495"/>
<path fill-rule="evenodd" clip-rule="evenodd" d="M9.32719 7.60823L9.33986 7.82209L9.12875 7.7959C8.3603 7.69552 7.68897 7.35509 7.11898 6.78334L6.84031 6.49964L6.76853 6.70914C6.61653 7.17614 6.71364 7.66933 7.03031 8.00103C7.1992 8.18434 7.1612 8.21053 6.86987 8.10142C6.76853 8.0665 6.67987 8.04032 6.67142 8.05341C6.64187 8.08396 6.7432 8.48113 6.82342 8.63825C6.9332 8.85648 7.15698 9.07034 7.40186 9.19691L7.60875 9.2973L7.36386 9.30166C7.12742 9.30166 7.11898 9.30602 7.14431 9.39768C7.22875 9.68137 7.56231 9.98252 7.93386 10.1135L8.19564 10.2051L7.96764 10.3448C7.62986 10.5455 7.23298 10.659 6.83609 10.6678C6.64609 10.6721 6.48987 10.6896 6.48987 10.7027C6.48987 10.7463 7.00498 10.9907 7.30475 11.0867C8.20408 11.3704 9.2723 11.2482 10.0745 10.7638C10.6445 10.419 11.2145 9.73375 11.4805 9.07034C11.6241 8.71681 11.7676 8.07087 11.7676 7.76099C11.7676 7.56022 11.7803 7.53403 12.0167 7.29398C12.1561 7.15432 12.287 7.00156 12.3123 6.95792C12.3545 6.87499 12.3503 6.87499 12.135 6.94919C11.7761 7.08012 11.7254 7.06266 11.9027 6.86626C12.0336 6.7266 12.1898 6.47345 12.1898 6.39926C12.1898 6.38616 12.1265 6.40799 12.0547 6.44727C11.9787 6.49091 11.8098 6.55638 11.6832 6.59566L11.4552 6.66986L11.2483 6.52583C11.1343 6.44727 10.9738 6.35998 10.8894 6.33379C10.6741 6.27269 10.3447 6.28142 10.1505 6.35125C9.62274 6.54765 9.28919 7.05394 9.32719 7.60823Z" fill="#0A142F"/>
</svg>
