<svg width="8" height="9" viewBox="0 0 8 9" fill="none" xmlns="http://www.w3.org/2000/svg">
<path d="M6.63565 0.732849L7.88077 1.88934L6.93158 2.77135L5.68646 1.61486L6.63565 0.732849ZM2.0752 6.12517H3.32032L6.34471 3.31606L5.09959 2.15957L2.0752 4.96868V6.12517Z" fill="#4B332F"/>
<path d="M6.64064 7.28168H2.14078C2.12998 7.28168 2.11878 7.28553 2.10799 7.28553C2.09429 7.28553 2.0806 7.28206 2.06648 7.28168H0.83008V1.88473H3.67186L4.50194 1.11374H0.83008C0.372291 1.11374 0 1.45914 0 1.88473V7.28168C0 7.70727 0.372291 8.05267 0.83008 8.05267H6.64064C6.86079 8.05267 7.07192 7.97144 7.22759 7.82685C7.38326 7.68226 7.47072 7.48616 7.47072 7.28168V3.9402L6.64064 4.71119V7.28168Z" fill="#4B332F"/>
</svg>
